<svg xmlns="http://www.w3.org/2000/svg" xmlns:xlink="http://www.w3.org/1999/xlink" width="500" zoomAndPan="magnify" viewBox="0 0 375 374.999991" height="500" preserveAspectRatio="xMidYMid meet" version="1.0"><defs><filter x="0%" y="0%" width="100%" height="100%" id="4a8958e8d2"><feColorMatrix values="0 0 0 0 1 0 0 0 0 1 0 0 0 0 1 0 0 0 1 0" color-interpolation-filters="sRGB"/></filter><g/><clipPath id="dd343cb466"><path d="M 0.558594 116 L 246 116 L 246 249 L 0.558594 249 Z M 0.558594 116 " clip-rule="nonzero"/></clipPath><mask id="69d217800d"><g filter="url(#4a8958e8d2)"><rect x="-146.5" width="540" fill="#000000" y="-135.499998" height="539.999987" fill-opacity="0.63"/></g></mask><clipPath id="8fa8478cd9"><rect x="0" width="246" y="0" height="133"/></clipPath><clipPath id="a5af726fd8"><rect x="0" width="247" y="0" height="304"/></clipPath></defs><g transform="matrix(1, 0, 0, 1, 64, 53)"><g clip-path="url(#a5af726fd8)"><g fill="#000000" fill-opacity="1"><g transform="translate(2.055493, 99.565848)"><g><path d="M 70.953125 -19.171875 L 85.0625 -96.578125 L 128.21875 -96.578125 L 128.21875 0 L 106.296875 0 L 106.296875 -77.390625 L 102.875 -77.390625 L 88.078125 0 L 48.359375 0 L 33.5625 -77.390625 L 30.140625 -77.390625 L 30.140625 0 L 8.21875 0 L 8.21875 -96.578125 L 51.375 -96.578125 L 65.484375 -19.171875 Z M 70.953125 -19.171875 "/></g></g></g><g fill="#000000" fill-opacity="1"><g transform="translate(138.476091, 99.565848)"><g><path d="M 103.703125 0 L 81.5 0 L 73.5625 -24.109375 L 32.875 -24.109375 L 24.9375 0 L 2.734375 0 L 35.34375 -96.578125 L 70.953125 -96.578125 Z M 50.40625 -77.390625 L 39.171875 -43.28125 L 67.125 -43.28125 L 55.890625 -77.390625 Z M 50.40625 -77.390625 "/></g></g></g><g fill="#000000" fill-opacity="1"><g transform="translate(91.469183, 292.452245)"><g><path d="M 10.6875 0.3125 C 9.351562 0.3125 8.15625 0.0507812 7.09375 -0.46875 C 6.039062 -0.988281 5.144531 -1.765625 4.40625 -2.796875 C 3.675781 -3.835938 3.113281 -5.128906 2.71875 -6.671875 C 2.332031 -8.222656 2.140625 -10.019531 2.140625 -12.0625 C 2.140625 -14.78125 2.472656 -17.050781 3.140625 -18.875 C 3.804688 -20.707031 4.773438 -22.085938 6.046875 -23.015625 C 7.316406 -23.941406 8.863281 -24.40625 10.6875 -24.40625 C 12.507812 -24.40625 14.054688 -23.941406 15.328125 -23.015625 C 16.597656 -22.085938 17.566406 -20.707031 18.234375 -18.875 C 18.898438 -17.050781 19.234375 -14.78125 19.234375 -12.0625 C 19.234375 -10.019531 19.035156 -8.222656 18.640625 -6.671875 C 18.253906 -5.128906 17.691406 -3.835938 16.953125 -2.796875 C 16.210938 -1.765625 15.316406 -0.988281 14.265625 -0.46875 C 13.210938 0.0507812 12.019531 0.3125 10.6875 0.3125 Z M 10.6875 -1.71875 C 11.96875 -1.71875 13.054688 -2.09375 13.953125 -2.84375 C 14.859375 -3.601562 15.546875 -4.75 16.015625 -6.28125 C 16.484375 -7.8125 16.71875 -9.738281 16.71875 -12.0625 C 16.71875 -13.851562 16.578125 -15.394531 16.296875 -16.6875 C 16.015625 -17.988281 15.613281 -19.054688 15.09375 -19.890625 C 14.570312 -20.734375 13.9375 -21.351562 13.1875 -21.75 C 12.445312 -22.15625 11.613281 -22.359375 10.6875 -22.359375 C 9.75 -22.359375 8.910156 -22.15625 8.171875 -21.75 C 7.429688 -21.351562 6.800781 -20.734375 6.28125 -19.890625 C 5.757812 -19.054688 5.363281 -17.988281 5.09375 -16.6875 C 4.820312 -15.394531 4.6875 -13.851562 4.6875 -12.0625 C 4.6875 -9.738281 4.914062 -7.8125 5.375 -6.28125 C 5.84375 -4.75 6.519531 -3.601562 7.40625 -2.84375 C 8.300781 -2.09375 9.394531 -1.71875 10.6875 -1.71875 Z M 10.6875 -1.71875 "/></g></g></g><g fill="#000000" fill-opacity="1"><g transform="translate(112.808535, 292.452245)"><g><path d="M 10.6875 0.3125 C 9.351562 0.3125 8.15625 0.0507812 7.09375 -0.46875 C 6.039062 -0.988281 5.144531 -1.765625 4.40625 -2.796875 C 3.675781 -3.835938 3.113281 -5.128906 2.71875 -6.671875 C 2.332031 -8.222656 2.140625 -10.019531 2.140625 -12.0625 C 2.140625 -14.78125 2.472656 -17.050781 3.140625 -18.875 C 3.804688 -20.707031 4.773438 -22.085938 6.046875 -23.015625 C 7.316406 -23.941406 8.863281 -24.40625 10.6875 -24.40625 C 12.507812 -24.40625 14.054688 -23.941406 15.328125 -23.015625 C 16.597656 -22.085938 17.566406 -20.707031 18.234375 -18.875 C 18.898438 -17.050781 19.234375 -14.78125 19.234375 -12.0625 C 19.234375 -10.019531 19.035156 -8.222656 18.640625 -6.671875 C 18.253906 -5.128906 17.691406 -3.835938 16.953125 -2.796875 C 16.210938 -1.765625 15.316406 -0.988281 14.265625 -0.46875 C 13.210938 0.0507812 12.019531 0.3125 10.6875 0.3125 Z M 10.6875 -1.71875 C 11.96875 -1.71875 13.054688 -2.09375 13.953125 -2.84375 C 14.859375 -3.601562 15.546875 -4.75 16.015625 -6.28125 C 16.484375 -7.8125 16.71875 -9.738281 16.71875 -12.0625 C 16.71875 -13.851562 16.578125 -15.394531 16.296875 -16.6875 C 16.015625 -17.988281 15.613281 -19.054688 15.09375 -19.890625 C 14.570312 -20.734375 13.9375 -21.351562 13.1875 -21.75 C 12.445312 -22.15625 11.613281 -22.359375 10.6875 -22.359375 C 9.75 -22.359375 8.910156 -22.15625 8.171875 -21.75 C 7.429688 -21.351562 6.800781 -20.734375 6.28125 -19.890625 C 5.757812 -19.054688 5.363281 -17.988281 5.09375 -16.6875 C 4.820312 -15.394531 4.6875 -13.851562 4.6875 -12.0625 C 4.6875 -9.738281 4.914062 -7.8125 5.375 -6.28125 C 5.84375 -4.75 6.519531 -3.601562 7.40625 -2.84375 C 8.300781 -2.09375 9.394531 -1.71875 10.6875 -1.71875 Z M 10.6875 -1.71875 "/></g></g></g><g fill="#000000" fill-opacity="1"><g transform="translate(134.147887, 292.452245)"><g><path d="M 1.734375 -24.078125 L 19.640625 -24.078125 L 19.640625 -22.078125 C 17.742188 -20.429688 16.125 -18.738281 14.78125 -17 C 13.445312 -15.257812 12.351562 -13.46875 11.5 -11.625 C 10.65625 -9.789062 10.023438 -7.90625 9.609375 -5.96875 C 9.203125 -4.03125 8.976562 -2.039062 8.9375 0 L 6.03125 0 C 6.132812 -2.007812 6.398438 -3.972656 6.828125 -5.890625 C 7.265625 -7.804688 7.894531 -9.675781 8.71875 -11.5 C 9.550781 -13.332031 10.601562 -15.117188 11.875 -16.859375 C 13.144531 -18.597656 14.660156 -20.296875 16.421875 -21.953125 L 1.734375 -21.953125 Z M 1.734375 -24.078125 "/></g></g></g><g clip-path="url(#dd343cb466)"><g mask="url(#69d217800d)"><g transform="matrix(1, 0, 0, 1, -0.000000000000014211, 116)"><g clip-path="url(#8fa8478cd9)"><g fill="#000000" fill-opacity="1"><g transform="translate(244.92832, 33.488494)"><g><path d="M -103.703125 0 L -81.5 0 L -73.5625 24.109375 L -32.875 24.109375 L -24.9375 0 L -2.734375 0 L -35.34375 96.578125 L -70.953125 96.578125 Z M -50.40625 77.390625 L -39.171875 43.28125 L -67.125 43.28125 L -55.890625 77.390625 Z M -50.40625 77.390625 "/></g></g></g><g fill="#000000" fill-opacity="1"><g transform="translate(138.503825, 33.488494)"><g><path d="M -70.953125 19.171875 L -85.0625 96.578125 L -128.21875 96.578125 L -128.21875 0 L -106.296875 0 L -106.296875 77.390625 L -102.875 77.390625 L -88.078125 0 L -48.359375 0 L -33.5625 77.390625 L -30.140625 77.390625 L -30.140625 0 L -8.21875 0 L -8.21875 96.578125 L -51.375 96.578125 L -65.484375 19.171875 Z M -70.953125 19.171875 "/></g></g></g></g></g></g></g><path stroke-linecap="butt" transform="matrix(1.415008, 0, 0, 1.415008, 10.299387, 120.224133)" fill="none" stroke-linejoin="miter" d="M 2.998982 2.000381 L 157.001036 2.000381 " stroke="#000000" stroke-width="4" stroke-opacity="1" stroke-miterlimit="4"/><path stroke-linecap="round" transform="matrix(1.415008, 0, 0, 1.415008, 10.299387, 120.224133)" fill="none" stroke-linejoin="round" d="M 1.99965 -4.001133 L 1.99965 7.999134 " stroke="#000000" stroke-width="4" stroke-opacity="1" stroke-miterlimit="4"/><path stroke-linecap="round" transform="matrix(1.415008, 0, 0, 1.415008, 10.299387, 120.224133)" fill="none" stroke-linejoin="round" d="M 158.000368 -4.001133 L 158.000368 7.999134 " stroke="#000000" stroke-width="4" stroke-opacity="1" stroke-miterlimit="4"/></g></g></svg>